<svg class="img-fluid" id="outputsvg" xmlns="http://www.w3.org/2000/svg"
  style="transform: none; transform-origin: 50% 50%; cursor: move; max-height: none;" width="1633" height="980"
  viewBox="0 0 16330 9800">
  <style>
    .st0 {
      fill: #00000000;
    }

    .st1 {
      fill: #ffffff;
    }
  </style>
  <g class="st0">
    <g>
      <path
        d="M0 4900 l0 -4900 8165 0 8165 0 0 4900 0 4900 -8165 0 -8165 0 0 -4900z m8122 2816 c34 -3 85 -6 114 -6 50 0 53 1 57 28 2 15 5 2 6 -28 1 -48 5 -58 38 -92 20 -21 43 -38 49 -38 18 0 29 -140 15 -181 -6 -18 -11 -47 -11 -65 0 -29 -4 -34 -23 -34 -13 0 -34 -12 -48 -26 -33 -35 -90 -63 -144 -71 -38 -5 -55 -1 -110 26 -36 18 -77 48 -93 67 -15 19 -32 34 -37 34 -6 0 -16 31 -23 70 -10 58 -10 77 3 112 8 24 15 55 15 71 0 18 5 27 16 27 8 0 35 17 60 37 39 33 44 42 45 83 1 26 4 34 6 19 4 -24 9 -27 65 -33z m3508 -56 c0 -15 -146 -127 -201 -156 -45 -22 -49 -27 -49 -61 l0 -36 89 6 c103 6 211 40 319 97 l73 39 -38 -45 c-44 -52 -120 -112 -180 -143 -38 -19 -43 -26 -43 -55 l0 -33 103 -21 c304 -65 485 -50 616 49 l53 40 -30 -43 c-49 -70 -107 -124 -240 -224 l-126 -94 -31 30 c-21 21 -41 30 -63 30 -30 0 -32 -2 -32 -34 0 -19 9 -56 20 -82 23 -52 21 -84 -16 -348 -24 -166 -23 -164 -189 -299 -208 -169 -248 -223 -345 -464 l-34 -83 -54 -18 -55 -18 -57 58 c-51 53 -60 58 -99 58 l-43 0 5 -37 c3 -21 13 -59 23 -84 l18 -46 -182 -364 c-238 -478 -317 -617 -368 -646 -57 -33 -255 -109 -541 -209 l-253 -87 0 -34 c0 -26 24 -75 99 -198 55 -90 132 -224 171 -299 62 -120 69 -139 59 -159 -28 -52 -307 -465 -337 -499 -19 -21 -49 -47 -68 -59 -29 -17 -34 -26 -34 -57 0 -20 11 -59 25 -86 l24 -48 -20 -37 c-11 -20 -35 -57 -53 -83 -18 -25 -70 -140 -116 -255 -96 -244 -191 -433 -297 -593 -61 -91 -107 -146 -227 -263 -169 -166 -201 -191 -325 -252 -69 -34 -291 -115 -316 -115 -3 0 24 27 60 61 80 75 127 163 133 250 l4 59 -60 0 c-43 0 -97 -12 -187 -40 -69 -22 -131 -40 -138 -40 -7 0 26 21 73 45 111 58 130 80 130 151 0 30 -6 70 -14 89 -14 32 -13 35 5 40 10 4 33 18 49 32 28 23 30 29 30 97 0 62 -4 78 -28 117 -35 54 -99 111 -158 138 -24 12 -135 43 -247 70 -111 27 -236 62 -277 76 -84 31 -154 64 -148 71 3 2 79 -3 169 -12 233 -22 467 -23 544 -2 33 9 119 33 190 53 118 33 145 37 290 42 88 2 175 9 193 15 29 9 32 13 32 47 l0 38 -172 7 c-282 10 -643 35 -635 42 2 2 64 10 138 18 293 33 472 82 647 177 89 47 433 285 541 374 85 70 196 192 271 301 l52 76 -4 116 c-4 98 -10 133 -38 214 -47 140 -97 215 -215 322 -126 114 -194 192 -268 303 -60 90 -273 510 -264 519 3 3 40 -36 84 -87 102 -122 120 -139 206 -195 171 -113 353 -174 520 -174 l77 0 0 34 c0 30 -10 43 -77 106 -61 56 -70 68 -43 54 106 -52 275 -58 473 -18 24 5 27 10 27 44 0 20 -6 43 -14 49 -40 34 -111 262 -122 395 l-6 71 77 -135 c43 -74 105 -174 138 -222 58 -84 62 -88 98 -88 35 0 40 4 84 73 25 39 75 128 110 197 35 69 90 160 124 203 79 103 85 124 78 267 -3 64 -3 121 1 127 4 6 34 21 66 34 84 31 106 58 106 128 0 34 -8 73 -20 99 -10 23 -15 42 -11 42 5 0 71 -31 148 -70 88 -44 152 -70 173 -70 l33 0 -7 98 c-11 160 23 235 128 285 68 32 79 53 74 131 -5 80 -39 151 -119 245 -33 40 -59 74 -57 76 2 2 35 -3 73 -12 76 -17 134 -42 154 -67 8 -10 29 -16 52 -16 l39 0 0 78 c-1 163 -75 272 -185 272 -39 0 -67 23 -128 103 -43 57 -75 68 -211 77 -136 8 -193 28 -283 99 l-48 38 -105 1 c-58 0 -118 5 -135 10 -23 8 0 10 100 11 339 2 700 70 909 170 44 22 82 40 84 40 1 1 2 -3 2 -9z m-5425 -621 c-19 -753 -20 -695 8 -723 28 -28 -90 -24 1762 -61 666 -14 1414 -30 1663 -35 287 -6 460 -7 471 -1 46 25 45 7 44 659 -1 681 -3 684 52 -73 20 -269 40 -535 44 -590 6 -76 5 -103 -4 -114 -11 -11 -229 -11 -1391 3 -759 9 -1608 18 -1889 21 -725 8 -875 13 -883 33 -5 15 129 1474 136 1468 1 -2 -4 -266 -13 -587z m-769 280 c53 -12 145 -22 227 -26 81 -3 133 -9 125 -14 -7 -5 -67 -27 -133 -49 -222 -73 -507 -133 -823 -172 l-183 -23 3 -35 c3 -33 5 -35 58 -48 30 -7 124 -16 209 -20 l155 -7 -40 -26 c-68 -45 -152 -132 -159 -164 -13 -58 -13 -58 -55 -51 -22 3 -74 9 -115 13 l-75 6 0 -37 c0 -32 4 -39 33 -51 62 -26 187 -45 293 -45 l106 0 -31 -37 c-91 -109 -111 -142 -141 -231 -17 -51 -34 -115 -37 -143 l-6 -49 33 0 c27 0 46 13 115 78 73 71 153 127 226 159 23 10 20 3 -27 -69 -73 -111 -106 -196 -112 -290 -6 -98 1 -108 78 -108 47 0 64 -5 97 -29 43 -31 77 -97 89 -170 6 -39 8 -41 44 -41 60 0 81 -32 90 -133 10 -103 20 -123 73 -148 45 -20 165 -25 243 -10 l41 8 -8 -36 c-12 -52 -11 -181 2 -243 23 -110 57 -174 112 -216 29 -22 108 -83 177 -136 105 -81 130 -96 161 -96 21 0 42 7 50 16 7 9 61 57 119 106 58 49 129 115 158 146 43 46 51 52 42 29 -5 -16 -10 -57 -10 -93 l0 -64 36 0 c29 0 50 13 127 78 136 114 339 252 475 321 l43 22 -42 -58 c-23 -32 -72 -93 -107 -137 -113 -135 -221 -297 -276 -412 -49 -101 -62 -119 -153 -210 -104 -102 -211 -251 -274 -379 -42 -87 -51 -217 -21 -312 63 -198 181 -314 461 -454 324 -161 705 -276 1086 -329 l140 -19 -175 3 c-185 4 -321 23 -513 72 -141 35 -377 115 -485 164 -51 23 -105 40 -126 40 -35 0 -36 -1 -36 -35 0 -31 10 -46 83 -119 49 -50 103 -93 134 -108 l53 -26 -46 -7 c-46 -7 -128 13 -169 41 -11 8 -34 14 -52 14 -32 0 -33 -1 -33 -44 0 -53 65 -280 154 -541 69 -202 134 -359 191 -461 38 -68 181 -256 279 -369 l61 -70 -45 34 c-25 19 -101 91 -170 160 -112 113 -131 137 -177 226 -94 184 -261 610 -382 974 l-61 183 21 48 c13 31 19 63 17 95 l-3 48 -65 34 c-36 19 -73 42 -84 51 -35 32 -195 283 -251 395 -85 172 -88 154 51 337 64 85 144 188 176 227 52 64 59 78 56 110 l-3 36 -175 47 c-216 58 -373 106 -421 131 -24 12 -52 42 -81 86 -54 81 -161 268 -213 372 l-37 74 21 37 c12 21 21 52 21 69 l0 31 -66 0 c-79 0 -51 -24 -309 275 -105 121 -242 274 -306 340 -152 156 -196 210 -216 265 -33 91 -71 178 -95 216 -14 21 -32 77 -41 123 -23 113 -42 145 -91 149 l-38 3 3 -50 4 -50 -35 26 c-215 160 -368 330 -460 513 -34 67 -80 183 -80 200 0 6 18 -1 39 -14 55 -35 152 -74 246 -98 66 -17 121 -21 315 -25 129 -2 267 -1 305 4 l70 8 3 36 3 36 -56 12 c-82 19 -60 25 40 12 100 -14 445 -32 457 -25 4 3 8 20 8 37 -1 28 -10 39 -76 87 -42 30 -80 61 -86 67 -6 7 28 -1 74 -17 47 -17 125 -39 174 -51z">
      </path>
      <path
        d="M7964 7545 c-22 -34 -13 -103 16 -127 33 -27 95 -23 125 7 29 29 34 88 9 123 -13 18 -24 22 -74 22 -53 0 -61 -3 -76 -25z">
      </path>
      <path
        d="M8206 7538 c-9 -12 -16 -42 -16 -65 0 -60 25 -83 89 -83 66 0 81 16 81 85 0 70 -15 85 -85 85 -44 0 -57 -4 -69 -22z">
      </path>
    </g>
  </g>
  <g class="st1">
    <g>
      <path
        d="M6261 8465 c0 -11 -51 -540 -111 -1175 -95 -993 -108 -1156 -96 -1168 15 -16 59 -17 2749 -48 1276 -14 1461 -15 1473 -2 16 15 17 -1 -46 838 -11 146 -40 542 -65 880 -25 338 -48 620 -50 625 -3 6 -3 -217 0 -495 3 -278 6 -759 6 -1070 l1 -564 -27 -24 c-27 -23 -30 -23 -184 -18 -86 3 -282 8 -436 11 -395 8 -2094 43 -2695 56 -277 6 -512 15 -522 20 -10 5 -22 18 -28 29 -8 15 -3 313 15 1045 15 564 24 1038 22 1053 -3 17 -5 20 -6 7z">
      </path>
      <!-- <path
        d="M8025 7802 c-3 -3 -5 -24 -5 -47 0 -36 -5 -45 -46 -79 l-45 -38 -54 36 c-44 29 -54 41 -57 68 -2 26 -8 34 -26 36 -30 5 -51 -14 -45 -38 4 -14 0 -20 -10 -20 -9 0 -21 -9 -27 -19 -13 -25 -13 -27 5 -45 12 -12 22 -13 46 -4 27 9 36 6 85 -27 43 -28 54 -40 48 -53 -20 -47 -27 -113 -18 -166 l10 -55 -61 -32 c-59 -31 -63 -31 -85 -16 -17 12 -28 13 -42 6 -24 -13 -23 -44 2 -62 12 -8 18 -21 15 -29 -7 -17 19 -48 39 -48 19 0 36 22 36 47 0 18 13 29 61 54 l61 31 30 -36 c16 -19 58 -49 93 -67 59 -29 71 -31 137 -27 79 5 137 29 177 72 14 14 28 26 33 26 5 0 33 -16 63 -36 44 -29 54 -42 57 -68 2 -25 8 -32 30 -34 23 -3 28 1 34 25 4 15 16 34 26 41 22 16 23 45 3 62 -13 11 -20 11 -39 0 -21 -11 -30 -9 -69 14 -68 40 -70 45 -52 112 14 53 13 82 -1 151 -4 19 5 27 57 54 44 22 65 27 72 20 18 -18 55 -13 67 9 8 15 6 24 -9 39 -11 11 -21 29 -23 42 -7 50 -68 51 -68 1 0 -24 -8 -32 -64 -59 l-63 -32 -37 38 c-32 33 -36 43 -36 89 l0 52 -35 0 c-31 0 -35 -3 -35 -25 0 -14 -4 -25 -10 -25 -5 0 -10 11 -10 25 0 14 -4 26 -10 27 -29 4 -35 1 -40 -20 -7 -31 -24 -29 -28 3 -3 20 -8 26 -25 23 -14 -2 -23 -11 -25 -25 -4 -30 -22 -29 -22 1 0 19 -6 25 -30 28 -17 3 -32 2 -35 0z m60 -286 c19 -28 9 -58 -26 -76 -25 -14 -63 7 -72 39 -14 54 67 85 98 37z m229 -2 c33 -32 10 -94 -35 -94 -21 0 -59 33 -59 53 0 46 62 73 94 41z">
      </path> -->
      <path
        d="M11700 7763 c-258 -178 -655 -273 -1142 -273 -98 0 -178 -3 -178 -7 1 -15 47 -41 101 -58 31 -9 101 -18 163 -20 105 -4 110 -5 149 -36 21 -17 66 -45 100 -62 53 -27 75 -31 182 -37 137 -9 169 -20 212 -77 61 -80 89 -103 128 -103 101 0 184 -109 185 -242 0 -50 -8 -59 -31 -32 -30 37 -160 76 -327 99 l-43 5 89 -100 c100 -115 146 -184 163 -252 18 -65 4 -91 -66 -124 -105 -50 -142 -131 -132 -291 3 -51 4 -93 3 -93 -1 0 -49 24 -107 54 -90 47 -282 128 -358 151 -18 6 -6 -11 44 -61 139 -140 139 -222 -3 -274 -40 -15 -64 -29 -68 -42 -3 -11 -3 -70 1 -132 8 -133 3 -152 -80 -258 -31 -39 -85 -128 -120 -197 -67 -131 -151 -271 -164 -271 -23 0 -215 313 -300 489 l-46 96 -3 -65 c-10 -188 52 -480 124 -585 14 -21 23 -39 21 -42 -10 -9 -185 -33 -242 -33 -147 0 -271 67 -356 191 -22 32 -41 59 -43 59 -10 0 18 -93 46 -149 23 -48 55 -88 127 -158 l95 -93 -49 0 c-140 1 -332 69 -495 176 -80 52 -91 63 -252 249 -160 184 -210 235 -199 203 24 -66 170 -387 237 -518 128 -252 213 -367 399 -536 66 -59 114 -113 141 -157 59 -95 105 -241 112 -348 l5 -87 -53 -76 c-75 -109 -185 -231 -271 -301 -108 -89 -452 -327 -541 -374 -217 -118 -470 -173 -908 -198 -120 -6 -123 -7 -83 -19 70 -21 221 -43 363 -54 273 -20 517 -33 583 -32 37 1 67 -2 67 -7 0 -19 -69 -30 -225 -34 -145 -5 -172 -9 -290 -42 -252 -71 -243 -69 -381 -67 -148 1 -433 26 -544 48 -113 21 -118 19 -70 -21 104 -87 223 -134 517 -206 221 -53 269 -72 333 -127 99 -84 129 -186 70 -235 -16 -14 -39 -28 -50 -32 -25 -8 -27 -47 -5 -98 36 -86 14 -116 -143 -196 -65 -33 -129 -70 -143 -81 l-24 -21 95 4 c76 4 121 13 223 46 70 23 142 41 159 41 29 0 30 -2 24 -32 -30 -151 -174 -286 -393 -370 -46 -17 -81 -33 -80 -35 6 -5 227 36 307 58 210 57 380 126 481 197 24 17 112 97 195 179 120 117 166 172 227 263 105 160 200 349 296 592 45 113 97 227 114 254 89 132 93 149 50 234 l-27 54 25 15 c62 41 109 98 227 275 185 277 202 307 202 344 0 41 -104 243 -242 469 -55 90 -98 166 -96 168 2 2 116 43 253 90 286 99 483 175 539 208 51 29 130 168 366 642 197 395 200 404 160 493 -12 25 -15 42 -8 42 14 0 113 -100 120 -120 4 -13 18 -11 89 12 l85 28 33 82 c99 243 139 297 346 464 170 138 169 135 200 377 29 224 30 276 6 330 -12 27 -21 51 -21 54 0 3 21 -13 46 -36 44 -41 46 -42 69 -27 71 47 269 201 305 238 106 108 176 271 141 327 -6 9 -15 1 -32 -34 -67 -133 -190 -213 -359 -230 -69 -7 -212 11 -350 44 l-75 17 45 23 c71 37 142 95 197 163 50 62 119 175 112 183 -3 2 -39 -20 -82 -49 -101 -70 -195 -119 -287 -150 -73 -24 -200 -45 -200 -32 0 3 19 15 43 27 68 34 175 120 224 179 51 62 96 136 91 149 -1 5 -32 -12 -68 -36z">
      </path>
      <path
        d="M4990 7502 c0 -13 47 -54 192 -165 75 -58 135 -106 133 -108 -6 -7 -299 8 -395 20 -132 17 -252 39 -339 62 -40 11 -75 18 -78 16 -8 -9 260 -136 312 -148 40 -9 53 -15 45 -23 -7 -7 -97 -11 -268 -11 -216 0 -270 3 -337 19 -150 35 -263 88 -347 164 l-41 37 7 -60 c15 -120 83 -282 177 -421 86 -128 254 -292 398 -388 68 -46 86 -37 78 36 -12 102 42 2 63 -117 7 -38 24 -88 38 -109 24 -38 62 -124 95 -216 20 -55 64 -108 221 -270 66 -69 213 -233 326 -363 179 -208 209 -239 244 -248 21 -6 55 -8 74 -4 l34 6 -31 -54 -31 -54 71 -134 c150 -283 227 -403 278 -429 47 -23 251 -86 441 -135 80 -21 149 -41 154 -46 5 -4 -18 -40 -51 -81 -114 -139 -294 -382 -299 -404 -15 -59 80 -263 220 -474 96 -144 99 -147 186 -193 36 -19 67 -42 68 -51 2 -10 -6 -41 -19 -69 -12 -29 -21 -63 -21 -77 1 -31 103 -338 189 -570 92 -247 196 -498 256 -615 46 -91 63 -112 186 -235 150 -150 279 -247 416 -314 81 -40 195 -81 195 -71 0 2 -31 22 -68 44 -156 91 -300 229 -478 459 -155 199 -214 316 -330 657 -67 196 -154 485 -154 512 0 13 3 14 23 1 38 -25 118 -48 166 -48 41 0 152 21 191 36 9 4 -12 15 -53 29 -37 13 -90 37 -117 55 -49 31 -185 168 -176 177 2 3 46 -14 96 -37 110 -49 345 -128 487 -164 187 -48 329 -68 514 -73 184 -6 281 3 407 36 118 31 110 36 -50 32 -209 -5 -383 18 -649 84 -430 108 -862 303 -1015 461 -104 106 -170 261 -160 374 11 122 146 343 309 504 91 91 104 109 153 210 55 115 164 276 295 437 99 122 222 299 207 299 -17 0 -207 -103 -328 -178 -139 -86 -216 -141 -327 -234 -51 -43 -94 -78 -97 -78 -14 0 -3 71 23 154 31 99 49 187 34 171 -5 -5 -27 -35 -48 -65 -62 -89 -122 -154 -214 -232 -47 -40 -109 -95 -138 -121 -34 -33 -56 -46 -65 -41 -7 5 -60 45 -118 89 -241 186 -227 173 -253 239 -51 126 -59 252 -22 355 8 24 14 46 12 47 -2 2 -41 -3 -88 -11 -111 -20 -165 -19 -216 4 -53 25 -63 45 -73 148 -9 101 -32 135 -93 135 -33 0 -35 2 -41 40 -12 72 -47 138 -89 169 -33 24 -50 29 -97 29 -31 0 -61 5 -68 12 -50 50 60 305 193 445 64 66 64 69 0 52 -134 -35 -243 -97 -352 -202 l-82 -79 19 71 c42 151 69 195 212 346 45 49 74 85 63 81 -95 -37 -252 -45 -373 -20 -78 16 -149 41 -141 49 3 2 48 -1 100 -7 112 -13 153 -7 144 22 -14 44 64 127 214 226 l74 49 -194 6 c-172 5 -260 15 -309 36 -8 3 64 16 160 28 423 54 789 142 1007 241 138 62 139 62 -84 60 -261 -1 -333 13 -622 129 -140 56 -161 62 -161 47z">
      </path>
    </g>
  </g>
</svg>