<?xml version="1.0" encoding="utf-8"?>
<svg xmlns="http://www.w3.org/2000/svg" style="margin: auto; display: block; shape-rendering: auto;" width="280" height="50" preserveAspectRatio="xMidYMid">
<style type="text/css">
  text {
    text-anchor: middle; font-size: 35px; opacity: 0;
  }
</style>
<g style="transform-origin: 140px 25px; transform: scale(0.875);">
<g transform="translate(140,25)">
  <g transform="translate(-4,0)"><g class="path" style="transform: scale(1); transform-origin: -136.06px -1.28084px; animation: 1s linear -0.605s infinite normal forwards running beat-534abe8f-d965-4a78-b2bd-c09344f20223;"><path d="M30.45-14.10L30.45-14.10L30.45-14.10Q30.45-12.05 29.90-10.21L29.90-10.21L29.90-10.21Q29.36-8.36 28.37-6.80L28.37-6.80L28.37-6.80Q27.38-5.23 26.02-3.97L26.02-3.97L26.02-3.97Q24.65-2.71 23.00-1.84L23.00-1.84L23.00-1.84Q21.35-0.96 19.46-0.48L19.46-0.48L19.46-0.48Q17.58 0 15.59 0L15.59 0L3.18 0L3.18-28.13L15.59-28.13L15.59-28.13Q17.58-28.13 19.45-27.66L19.45-27.66L19.45-27.66Q21.33-27.19 22.98-26.32L22.98-26.32L22.98-26.32Q24.63-25.45 26.01-24.20L26.01-24.20L26.01-24.20Q27.38-22.95 28.37-21.40L28.37-21.40L28.37-21.40Q29.36-19.84 29.90-18.00L29.90-18.00L29.90-18.00Q30.45-16.15 30.45-14.10zM22.58-14.10L22.58-14.10L22.58-14.10Q22.58-16.39 22.02-18.45L22.02-18.45L22.02-18.45Q21.46-20.51 20.29-22.07L20.29-22.07L20.29-22.07Q19.12-23.63 17.31-24.55L17.31-24.55L17.31-24.55Q15.51-25.47 12.99-25.47L12.99-25.47L10.94-25.47L10.94-2.73L12.99-2.73L12.99-2.73Q15.47-2.73 17.28-3.66L17.28-3.66L17.28-3.66Q19.08-4.59 20.26-6.16L20.26-6.16L20.26-6.16Q21.45-7.73 22.01-9.79L22.01-9.79L22.01-9.79Q22.58-11.84 22.58-14.10" fill="#4dc4ff" stroke="none" stroke-width="none" transform="translate(-152.875,12.784156494140625)" style="fill: rgb(77, 196, 255);"></path></g><g class="path" style="transform: scale(1); transform-origin: -108.815px 1.22916px; animation: 1s linear -0.55s infinite normal forwards running beat-534abe8f-d965-4a78-b2bd-c09344f20223;"><path d="M53.65-20.57L53.65-20.57L49.94-14.41L49.94-14.41Q49.71-15.20 49.34-16.17L49.34-16.17L49.34-16.17Q48.96-17.15 48.42-18.00L48.42-18.00L48.42-18.00Q47.87-18.85 47.11-19.42L47.11-19.42L47.11-19.42Q46.35-20 45.35-20L45.35-20L45.35-20Q44.43-20 43.76-19.53L43.76-19.53L43.76-19.53Q43.09-19.06 42.62-18.31L42.62-18.31L42.62-18.31Q42.15-17.56 41.85-16.61L41.85-16.61L41.85-16.61Q41.54-15.66 41.38-14.70L41.38-14.70L41.38-14.70Q41.21-13.73 41.15-12.84L41.15-12.84L41.15-12.84Q41.09-11.95 41.09-11.31L41.09-11.31L41.09 0L34.47 0L34.47-22.56L37.01-22.56L39.69-17.30L39.69-17.30Q40.23-18.57 40.94-19.64L40.94-19.64L40.94-19.64Q41.64-20.70 42.56-21.47L42.56-21.47L42.56-21.47Q43.48-22.25 44.64-22.68L44.64-22.68L44.64-22.68Q45.80-23.11 47.27-23.11L47.27-23.11L47.27-23.11Q48.03-23.11 48.96-22.98L48.96-22.98L48.96-22.98Q49.90-22.85 50.80-22.55L50.80-22.55L50.80-22.55Q51.70-22.25 52.46-21.76L52.46-21.76L52.46-21.76Q53.22-21.27 53.65-20.57" fill="#4dc4ff" stroke="none" stroke-width="none" transform="translate(-152.875,12.784156494140625)" style="fill: rgb(222, 115, 255);"></path></g><g class="path" style="transform: scale(1); transform-origin: -86.195px 1.45416px; animation: 1s linear -0.495s infinite normal forwards running beat-534abe8f-d965-4a78-b2bd-c09344f20223;"><path d="M78.67-22.56L78.67 0L72.07 0L72.07-2.70L72.07-2.70Q70.90-1.09 69.25-0.32L69.25-0.32L69.25-0.32Q67.60 0.45 65.63 0.45L65.63 0.45L65.63 0.45Q63.05 0.45 61.02-0.47L61.02-0.47L61.02-0.47Q58.98-1.39 57.58-2.98L57.58-2.98L57.58-2.98Q56.17-4.57 55.43-6.72L55.43-6.72L55.43-6.72Q54.69-8.87 54.69-11.33L54.69-11.33L54.69-11.33Q54.69-13.79 55.43-15.94L55.43-15.94L55.43-15.94Q56.17-18.09 57.58-19.68L57.58-19.68L57.58-19.68Q58.98-21.27 61.02-22.19L61.02-22.19L61.02-22.19Q63.05-23.11 65.63-23.11L65.63-23.11L65.63-23.11Q66.93-23.11 68.12-22.71L68.12-22.71L68.12-22.71Q69.30-22.32 70.28-21.61L70.28-21.61L70.28-21.61Q71.27-20.90 72.02-19.89L72.02-19.89L72.02-19.89Q72.77-18.89 73.20-17.66L73.20-17.66L76.13-22.56L78.67-22.56zM72.03-11.33L72.03-11.33L72.03-11.33Q72.03-12.21 71.94-13.18L71.94-13.18L71.94-13.18Q71.86-14.16 71.64-15.12L71.64-15.12L71.64-15.12Q71.43-16.07 71.04-16.94L71.04-16.94L71.04-16.94Q70.66-17.81 70.07-18.49L70.07-18.49L70.07-18.49Q69.47-19.16 68.63-19.55L68.63-19.55L68.63-19.55Q67.79-19.94 66.68-19.94L66.68-19.94L66.68-19.94Q65.57-19.94 64.75-19.54L64.75-19.54L64.75-19.54Q63.93-19.14 63.34-18.47L63.34-18.47L63.34-18.47Q62.75-17.79 62.37-16.91L62.37-16.91L62.37-16.91Q61.99-16.04 61.78-15.08L61.78-15.08L61.78-15.08Q61.56-14.12 61.47-13.15L61.47-13.15L61.47-13.15Q61.39-12.19 61.39-11.33L61.39-11.33L61.39-11.33Q61.39-10.47 61.47-9.49L61.47-9.49L61.47-9.49Q61.56-8.52 61.78-7.56L61.78-7.56L61.78-7.56Q61.99-6.60 62.37-5.72L62.37-5.72L62.37-5.72Q62.75-4.84 63.34-4.17L63.34-4.17L63.34-4.17Q63.93-3.50 64.75-3.10L64.75-3.10L64.75-3.10Q65.57-2.70 66.68-2.70L66.68-2.70L66.68-2.70Q67.70-2.70 68.49-3.12L68.49-3.12L68.49-3.12Q69.28-3.54 69.87-4.24L69.87-4.24L69.87-4.24Q70.47-4.94 70.88-5.84L70.88-5.84L70.88-5.84Q71.29-6.74 71.54-7.70L71.54-7.70L71.54-7.70Q71.80-8.65 71.91-9.60L71.91-9.60L71.91-9.60Q72.03-10.55 72.03-11.33" fill="#4dc4ff" stroke="none" stroke-width="none" transform="translate(-152.875,12.784156494140625)" style="fill: rgb(165, 224, 117);"></path></g><g class="path" style="transform: scale(1); transform-origin: -57.62px -2.64584px; animation: 1s linear -0.44s infinite normal forwards running beat-534abe8f-d965-4a78-b2bd-c09344f20223;"><path d="M90.78-7.58L90.78 0L84.18 0L84.18-30.86L90.78-30.86L90.78-10.61L90.78-10.61Q92.40-11.78 93.97-13.18L93.97-13.18L93.97-13.18Q95.55-14.59 96.97-16.14L96.97-16.14L96.97-16.14Q98.40-17.70 99.62-19.32L99.62-19.32L99.62-19.32Q100.84-20.94 101.76-22.56L101.76-22.56L106.25-22.56L106.25-22.56Q104.88-20.25 103.01-17.96L103.01-17.96L103.01-17.96Q101.13-15.66 98.93-13.57L98.93-13.57L106.33 0L99.04 0L93.79-9.41L93.79-9.41Q92.32-8.42 90.78-7.58L90.78-7.58" fill="#4dc4ff" stroke="none" stroke-width="none" transform="translate(-152.875,12.784156494140625)" style="fill: rgb(240, 164, 93);"></path></g><g class="path" style="transform: scale(1); transform-origin: -33.85px 1.45416px; animation: 1s linear -0.385s infinite normal forwards running beat-534abe8f-d965-4a78-b2bd-c09344f20223;"><path d="M114.26-10.70L114.26-10.70L114.26-10.70Q115.47-10.43 116.68-10.27L116.68-10.27L116.68-10.27Q117.89-10.12 119.12-10.12L119.12-10.12L119.12-10.12Q120.41-10.12 121.51-10.36L121.51-10.36L121.51-10.36Q122.62-10.61 123.43-11.18L123.43-11.18L123.43-11.18Q124.24-11.76 124.71-12.71L124.71-12.71L124.71-12.71Q125.18-13.67 125.18-15.10L125.18-15.10L125.18-15.10Q125.18-16.25 124.86-17.21L124.86-17.21L124.86-17.21Q124.55-18.16 123.94-18.85L123.94-18.85L123.94-18.85Q123.32-19.53 122.42-19.91L122.42-19.91L122.42-19.91Q121.52-20.29 120.33-20.29L120.33-20.29L120.33-20.29Q119.22-20.29 118.33-19.88L118.33-19.88L118.33-19.88Q117.44-19.47 116.77-18.78L116.77-18.78L116.77-18.78Q116.09-18.09 115.62-17.17L115.62-17.17L115.62-17.17Q115.14-16.25 114.82-15.25L114.82-15.25L114.82-15.25Q114.51-14.26 114.38-13.24L114.38-13.24L114.38-13.24Q114.24-12.23 114.24-11.33L114.24-11.33L114.24-11.33Q114.24-11.17 114.24-11.02L114.24-11.02L114.24-11.02Q114.24-10.86 114.26-10.70zM130.53-15.16L130.53-15.16L130.53-15.16Q130.53-13.77 130.08-12.69L130.08-12.69L130.08-12.69Q129.63-11.60 128.86-10.78L128.86-10.78L128.86-10.78Q128.09-9.96 127.07-9.39L127.07-9.39L127.07-9.39Q126.05-8.83 124.90-8.47L124.90-8.47L124.90-8.47Q123.75-8.11 122.53-7.95L122.53-7.95L122.53-7.95Q121.31-7.79 120.16-7.79L120.16-7.79L120.16-7.79Q118.69-7.79 117.27-8.00L117.27-8.00L117.27-8.00Q115.84-8.20 114.45-8.65L114.45-8.65L114.45-8.65Q114.67-7.36 115.14-6.20L115.14-6.20L115.14-6.20Q115.61-5.04 116.39-4.17L116.39-4.17L116.39-4.17Q117.17-3.30 118.31-2.79L118.31-2.79L118.31-2.79Q119.45-2.29 121.02-2.29L121.02-2.29L121.02-2.29Q122.05-2.29 122.99-2.60L122.99-2.60L122.99-2.60Q123.93-2.91 124.71-3.48L124.71-3.48L124.71-3.48Q125.49-4.04 126.08-4.82L126.08-4.82L126.08-4.82Q126.68-5.61 127.05-6.56L127.05-6.56L129.90-5.51L129.90-5.51Q129.26-3.96 128.13-2.84L128.13-2.84L128.13-2.84Q127.01-1.72 125.60-0.99L125.60-0.99L125.60-0.99Q124.18-0.25 122.59 0.10L122.59 0.10L122.59 0.10Q121.00 0.45 119.43 0.45L119.43 0.45L119.43 0.45Q116.86 0.45 114.67-0.42L114.67-0.42L114.67-0.42Q112.48-1.29 110.90-2.85L110.90-2.85L110.90-2.85Q109.32-4.41 108.42-6.58L108.42-6.58L108.42-6.58Q107.52-8.75 107.52-11.33L107.52-11.33L107.52-11.33Q107.52-13.91 108.42-16.07L108.42-16.07L108.42-16.07Q109.32-18.24 110.90-19.80L110.90-19.80L110.90-19.80Q112.48-21.37 114.67-22.24L114.67-22.24L114.67-22.24Q116.86-23.11 119.43-23.11L119.43-23.11L119.43-23.11Q120.68-23.11 121.99-22.93L121.99-22.93L121.99-22.93Q123.30-22.75 124.53-22.37L124.53-22.37L124.53-22.37Q125.76-21.99 126.86-21.39L126.86-21.39L126.86-21.39Q127.95-20.78 128.76-19.89L128.76-19.89L128.76-19.89Q129.57-19.00 130.05-17.83L130.05-17.83L130.05-17.83Q130.53-16.66 130.53-15.16" fill="#4dc4ff" stroke="none" stroke-width="none" transform="translate(-152.875,12.784156494140625)" style="fill: rgb(255, 97, 110);"></path></g><g class="path" style="transform: scale(1); transform-origin: 6.75178px 1.40916px; animation: 1s linear -0.33s infinite normal forwards running beat-534abe8f-d965-4a78-b2bd-c09344f20223;"><path d="M173.18-13.46L173.18-13.46L173.18-13.09L173.18-13.09Q173.14-11.45 172.84-9.69L172.84-9.69L172.84-9.69Q172.54-7.93 171.99-6.17L171.99-6.17L171.99-6.17Q171.45-4.41 170.68-2.70L170.68-2.70L170.68-2.70Q169.92-0.98 168.97 0.60L168.97 0.60L168.97 0.60Q168.03 2.17 166.93 3.54L166.93 3.54L166.93 3.54Q165.84 4.92 164.63 5.98L164.63 5.98L161.72 4.30L161.72 4.30Q162.40 3.14 162.96 1.79L162.96 1.79L162.96 1.79Q163.52 0.43 163.96-1.05L163.96-1.05L163.96-1.05Q164.41-2.54 164.74-4.10L164.74-4.10L164.74-4.10Q165.06-5.66 165.27-7.21L165.27-7.21L165.27-7.21Q165.49-8.75 165.60-10.24L165.60-10.24L165.60-10.24Q165.70-11.74 165.70-13.09L165.70-13.09L165.70-13.09Q165.70-14.14 165.69-15.48L165.69-15.48L165.69-15.48Q165.68-16.82 165.54-18.20L165.54-18.20L165.54-18.20Q165.39-19.59 165.06-20.91L165.06-20.91L165.06-20.91Q164.73-22.23 164.07-23.26L164.07-23.26L164.07-23.26Q163.42-24.30 162.39-24.92L162.39-24.92L162.39-24.92Q161.37-25.55 159.84-25.55L159.84-25.55L159.84-25.55Q158.50-25.55 157.53-25.09L157.53-25.09L157.53-25.09Q156.56-24.63 155.89-23.86L155.89-23.86L155.89-23.86Q155.21-23.09 154.81-22.07L154.81-22.07L154.81-22.07Q154.41-21.05 154.19-19.93L154.19-19.93L154.19-19.93Q153.96-18.81 153.90-17.67L153.90-17.67L153.90-17.67Q153.83-16.52 153.83-15.51L153.83-15.51L153.83-10.06L162.25-10.06L162.25-6.84L153.83-6.84L153.83 0L146.07 0L146.07-14.30L146.07-14.30Q146.07-17.36 147.05-20L147.05-20L147.05-20Q148.03-22.64 149.81-24.58L149.81-24.58L149.81-24.58Q151.60-26.52 154.11-27.63L154.11-27.63L154.11-27.63Q156.62-28.73 159.71-28.73L159.71-28.73L159.71-28.73Q161.80-28.73 163.62-28.13L163.62-28.13L163.62-28.13Q165.45-27.54 166.95-26.49L166.95-26.49L166.95-26.49Q168.46-25.45 169.64-24.01L169.64-24.01L169.64-24.01Q170.82-22.58 171.61-20.88L171.61-20.88L171.61-20.88Q172.40-19.18 172.81-17.29L172.81-17.29L172.81-17.29Q173.22-15.39 173.18-13.46" fill="#4dc4ff" stroke="none" stroke-width="none" transform="translate(-152.875,12.784156494140625)" style="fill: rgb(77, 196, 255);"></path></g><g class="path" style="transform: scale(1); transform-origin: 32.77px 1.50416px; animation: 1s linear -0.275s infinite normal forwards running beat-534abe8f-d965-4a78-b2bd-c09344f20223;"><path d="M188.14-12.44L196.82 0L190.21 0L184.69-7.91L179.04 0L174.47 0L182.97-10.39L174.47-22.56L181.07-22.56L186.43-14.90L192.25-22.56L196.82-22.56L188.14-12.44" fill="#4dc4ff" stroke="none" stroke-width="none" transform="translate(-152.875,12.784156494140625)" style="fill: rgb(222, 115, 255);"></path></g><g class="path" style="transform: scale(1); transform-origin: 56.25px 1.45416px; animation: 1s linear -0.22s infinite normal forwards running beat-534abe8f-d965-4a78-b2bd-c09344f20223;"><path d="M204.36-10.70L204.36-10.70L204.36-10.70Q205.57-10.43 206.78-10.27L206.78-10.27L206.78-10.27Q207.99-10.12 209.22-10.12L209.22-10.12L209.22-10.12Q210.51-10.12 211.61-10.36L211.61-10.36L211.61-10.36Q212.71-10.61 213.53-11.18L213.53-11.18L213.53-11.18Q214.34-11.76 214.80-12.71L214.80-12.71L214.80-12.71Q215.27-13.67 215.27-15.10L215.27-15.10L215.27-15.10Q215.27-16.25 214.96-17.21L214.96-17.21L214.96-17.21Q214.65-18.16 214.03-18.85L214.03-18.85L214.03-18.85Q213.42-19.53 212.52-19.91L212.52-19.91L212.52-19.91Q211.62-20.29 210.43-20.29L210.43-20.29L210.43-20.29Q209.32-20.29 208.43-19.88L208.43-19.88L208.43-19.88Q207.54-19.47 206.87-18.78L206.87-18.78L206.87-18.78Q206.19-18.09 205.71-17.17L205.71-17.17L205.71-17.17Q205.23-16.25 204.92-15.25L204.92-15.25L204.92-15.25Q204.61-14.26 204.47-13.24L204.47-13.24L204.47-13.24Q204.34-12.23 204.34-11.33L204.34-11.33L204.34-11.33Q204.34-11.17 204.34-11.02L204.34-11.02L204.34-11.02Q204.34-10.86 204.36-10.70zM220.63-15.16L220.63-15.16L220.63-15.16Q220.63-13.77 220.18-12.69L220.18-12.69L220.18-12.69Q219.73-11.60 218.96-10.78L218.96-10.78L218.96-10.78Q218.18-9.96 217.17-9.39L217.17-9.39L217.17-9.39Q216.15-8.83 215-8.47L215-8.47L215-8.47Q213.85-8.11 212.63-7.95L212.63-7.95L212.63-7.95Q211.41-7.79 210.25-7.79L210.25-7.79L210.25-7.79Q208.79-7.79 207.36-8.00L207.36-8.00L207.36-8.00Q205.94-8.20 204.55-8.65L204.55-8.65L204.55-8.65Q204.77-7.36 205.23-6.20L205.23-6.20L205.23-6.20Q205.70-5.04 206.48-4.17L206.48-4.17L206.48-4.17Q207.27-3.30 208.41-2.79L208.41-2.79L208.41-2.79Q209.55-2.29 211.11-2.29L211.11-2.29L211.11-2.29Q212.15-2.29 213.09-2.60L213.09-2.60L213.09-2.60Q214.02-2.91 214.80-3.48L214.80-3.48L214.80-3.48Q215.59-4.04 216.18-4.82L216.18-4.82L216.18-4.82Q216.78-5.61 217.15-6.56L217.15-6.56L220-5.51L220-5.51Q219.36-3.96 218.23-2.84L218.23-2.84L218.23-2.84Q217.11-1.72 215.69-0.99L215.69-0.99L215.69-0.99Q214.28-0.25 212.69 0.10L212.69 0.10L212.69 0.10Q211.09 0.45 209.53 0.45L209.53 0.45L209.53 0.45Q206.95 0.45 204.77-0.42L204.77-0.42L204.77-0.42Q202.58-1.29 201.00-2.85L201.00-2.85L201.00-2.85Q199.41-4.41 198.52-6.58L198.52-6.58L198.52-6.58Q197.62-8.75 197.62-11.33L197.62-11.33L197.62-11.33Q197.62-13.91 198.52-16.07L198.52-16.07L198.52-16.07Q199.41-18.24 201.00-19.80L201.00-19.80L201.00-19.80Q202.58-21.37 204.77-22.24L204.77-22.24L204.77-22.24Q206.95-23.11 209.53-23.11L209.53-23.11L209.53-23.11Q210.78-23.11 212.09-22.93L212.09-22.93L212.09-22.93Q213.40-22.75 214.63-22.37L214.63-22.37L214.63-22.37Q215.86-21.99 216.95-21.39L216.95-21.39L216.95-21.39Q218.05-20.78 218.86-19.89L218.86-19.89L218.86-19.89Q219.67-19.00 220.15-17.83L220.15-17.83L220.15-17.83Q220.63-16.66 220.63-15.16" fill="#4dc4ff" stroke="none" stroke-width="none" transform="translate(-152.875,12.784156494140625)" style="fill: rgb(165, 224, 117);"></path></g><g class="path" style="transform: scale(1); transform-origin: 75.175px -3.69084px; animation: 1s linear -0.165s infinite normal forwards running beat-534abe8f-d965-4a78-b2bd-c09344f20223;"><path d="M231.35-26.09L231.35 0L224.75 0L224.75-32.95L227.29-32.95L231.35-26.09" fill="#4dc4ff" stroke="none" stroke-width="none" transform="translate(-152.875,12.784156494140625)" style="fill: rgb(240, 164, 93);"></path></g><g class="path" style="transform: scale(1); transform-origin: 93.575px 1.22916px; animation: 1s linear -0.11s infinite normal forwards running beat-534abe8f-d965-4a78-b2bd-c09344f20223;"><path d="M256.04-20.57L256.04-20.57L252.32-14.41L252.32-14.41Q252.09-15.20 251.72-16.17L251.72-16.17L251.72-16.17Q251.35-17.15 250.80-18.00L250.80-18.00L250.80-18.00Q250.25-18.85 249.49-19.42L249.49-19.42L249.49-19.42Q248.73-20 247.73-20L247.73-20L247.73-20Q246.82-20 246.14-19.53L246.14-19.53L246.14-19.53Q245.47-19.06 245-18.31L245-18.31L245-18.31Q244.53-17.56 244.23-16.61L244.23-16.61L244.23-16.61Q243.93-15.66 243.76-14.70L243.76-14.70L243.76-14.70Q243.59-13.73 243.54-12.84L243.54-12.84L243.54-12.84Q243.48-11.95 243.48-11.31L243.48-11.31L243.48 0L236.86 0L236.86-22.56L239.39-22.56L242.07-17.30L242.07-17.30Q242.62-18.57 243.32-19.64L243.32-19.64L243.32-19.64Q244.02-20.70 244.94-21.47L244.94-21.47L244.94-21.47Q245.86-22.25 247.02-22.68L247.02-22.68L247.02-22.68Q248.18-23.11 249.65-23.11L249.65-23.11L249.65-23.11Q250.41-23.11 251.35-22.98L251.35-22.98L251.35-22.98Q252.29-22.85 253.18-22.55L253.18-22.55L253.18-22.55Q254.08-22.25 254.84-21.76L254.84-21.76L254.84-21.76Q255.61-21.27 256.04-20.57" fill="#4dc4ff" stroke="none" stroke-width="none" transform="translate(-152.875,12.784156494140625)" style="fill: rgb(255, 97, 110);"></path></g><g class="path" style="transform: scale(1); transform-origin: 116.57px 1.45416px; animation: 1s linear -0.055s infinite normal forwards running beat-534abe8f-d965-4a78-b2bd-c09344f20223;"><path d="M282.03-11.33L282.03-11.33L282.03-11.33Q282.03-9.57 281.56-8.03L281.56-8.03L281.56-8.03Q281.09-6.48 280.26-5.18L280.26-5.18L280.26-5.18Q279.43-3.87 278.26-2.82L278.26-2.82L278.26-2.82Q277.09-1.78 275.69-1.05L275.69-1.05L275.69-1.05Q274.30-0.33 272.71 0.06L272.71 0.06L272.71 0.06Q271.11 0.45 269.43 0.45L269.43 0.45L269.43 0.45Q267.75 0.45 266.17 0.06L266.17 0.06L266.17 0.06Q264.59-0.33 263.19-1.05L263.19-1.05L263.19-1.05Q261.80-1.78 260.63-2.82L260.63-2.82L260.63-2.82Q259.45-3.87 258.62-5.18L258.62-5.18L258.62-5.18Q257.79-6.48 257.32-8.04L257.32-8.04L257.32-8.04Q256.86-9.59 256.86-11.33L256.86-11.33L256.86-11.33Q256.86-13.07 257.32-14.62L257.32-14.62L257.32-14.62Q257.79-16.17 258.62-17.48L258.62-17.48L258.62-17.48Q259.45-18.79 260.63-19.83L260.63-19.83L260.63-19.83Q261.80-20.88 263.19-21.60L263.19-21.60L263.19-21.60Q264.59-22.32 266.17-22.71L266.17-22.71L266.17-22.71Q267.75-23.11 269.43-23.11L269.43-23.11L269.43-23.11Q271.11-23.11 272.71-22.71L272.71-22.71L272.71-22.71Q274.30-22.32 275.69-21.60L275.69-21.60L275.69-21.60Q277.09-20.88 278.26-19.83L278.26-19.83L278.26-19.83Q279.43-18.79 280.26-17.48L280.26-17.48L280.26-17.48Q281.09-16.17 281.56-14.62L281.56-14.62L281.56-14.62Q282.03-13.07 282.03-11.33zM275.31-11.33L275.31-11.33L275.31-11.33Q275.31-12.27 275.21-13.31L275.21-13.31L275.21-13.31Q275.10-14.36 274.84-15.36L274.84-15.36L274.84-15.36Q274.59-16.37 274.15-17.29L274.15-17.29L274.15-17.29Q273.71-18.22 273.07-18.92L273.07-18.92L273.07-18.92Q272.42-19.61 271.52-20.03L271.52-20.03L271.52-20.03Q270.63-20.45 269.43-20.45L269.43-20.45L269.43-20.45Q268.30-20.45 267.42-20.02L267.42-20.02L267.42-20.02Q266.54-19.59 265.89-18.88L265.89-18.88L265.89-18.88Q265.23-18.16 264.79-17.23L264.79-17.23L264.79-17.23Q264.36-16.29 264.08-15.28L264.08-15.28L264.08-15.28Q263.81-14.28 263.69-13.25L263.69-13.25L263.69-13.25Q263.57-12.23 263.57-11.33L263.57-11.33L263.57-11.33Q263.57-10.43 263.69-9.40L263.69-9.40L263.69-9.40Q263.81-8.38 264.08-7.36L264.08-7.36L264.08-7.36Q264.36-6.35 264.79-5.42L264.79-5.42L264.79-5.42Q265.23-4.49 265.89-3.78L265.89-3.78L265.89-3.78Q266.54-3.07 267.42-2.64L267.42-2.64L267.42-2.64Q268.30-2.21 269.43-2.21L269.43-2.21L269.43-2.21Q270.61-2.21 271.50-2.63L271.50-2.63L271.50-2.63Q272.40-3.05 273.06-3.75L273.06-3.75L273.06-3.75Q273.71-4.45 274.14-5.37L274.14-5.37L274.14-5.37Q274.57-6.29 274.83-7.30L274.83-7.30L274.83-7.30Q275.10-8.32 275.21-9.36L275.21-9.36L275.21-9.36Q275.31-10.39 275.31-11.33" fill="#4dc4ff" stroke="none" stroke-width="none" transform="translate(-152.875,12.784156494140625)" style="fill: rgb(77, 196, 255);"></path></g><g class="path" style="transform: scale(1); transform-origin: 144.06px -2.38084px; animation: 1s linear 0s infinite normal forwards running beat-534abe8f-d965-4a78-b2bd-c09344f20223;"><path d="M308.93-30.86L308.93 0L306.39 0L303.46-4.90L303.46-4.90Q303.03-3.67 302.28-2.68L302.28-2.68L302.28-2.68Q301.52-1.68 300.54-0.97L300.54-0.97L300.54-0.97Q299.55-0.25 298.37 0.14L298.37 0.14L298.37 0.14Q297.19 0.53 295.88 0.53L295.88 0.53L295.88 0.53Q293.30 0.53 291.27-0.39L291.27-0.39L291.27-0.39Q289.24-1.31 287.83-2.90L287.83-2.90L287.83-2.90Q286.43-4.49 285.68-6.64L285.68-6.64L285.68-6.64Q284.94-8.79 284.94-11.25L284.94-11.25L284.94-11.25Q284.94-13.71 285.68-15.86L285.68-15.86L285.68-15.86Q286.43-18.01 287.83-19.59L287.83-19.59L287.83-19.59Q289.24-21.17 291.27-22.09L291.27-22.09L291.27-22.09Q293.30-23.01 295.88-23.01L295.88-23.01L295.88-23.01Q297.85-23.01 299.50-22.25L299.50-22.25L299.50-22.25Q301.15-21.48 302.32-19.86L302.32-19.86L302.32-30.86L308.93-30.86zM302.29-11.25L302.29-11.25L302.29-11.25Q302.29-12.03 302.17-12.97L302.17-12.97L302.17-12.97Q302.05-13.91 301.80-14.86L301.80-14.86L301.80-14.86Q301.54-15.82 301.13-16.72L301.13-16.72L301.13-16.72Q300.72-17.62 300.13-18.32L300.13-18.32L300.13-18.32Q299.53-19.02 298.74-19.44L298.74-19.44L298.74-19.44Q297.95-19.86 296.93-19.86L296.93-19.86L296.93-19.86Q295.82-19.86 295-19.46L295-19.46L295-19.46Q294.18-19.06 293.59-18.39L293.59-18.39L293.59-18.39Q293.01-17.71 292.63-16.84L292.63-16.84L292.63-16.84Q292.25-15.96 292.03-15L292.03-15L292.03-15Q291.82-14.04 291.73-13.08L291.73-13.08L291.73-13.08Q291.64-12.11 291.64-11.25L291.64-11.25L291.64-11.25Q291.64-10.39 291.73-9.42L291.73-9.42L291.73-9.42Q291.82-8.46 292.03-7.50L292.03-7.50L292.03-7.50Q292.25-6.54 292.63-5.65L292.63-5.65L292.63-5.65Q293.01-4.77 293.59-4.09L293.59-4.09L293.59-4.09Q294.18-3.42 295-3.02L295-3.02L295-3.02Q295.82-2.62 296.93-2.62L296.93-2.62L296.93-2.62Q298.05-2.62 298.89-3.01L298.89-3.01L298.89-3.01Q299.73-3.40 300.32-4.07L300.32-4.07L300.32-4.07Q300.92-4.75 301.30-5.62L301.30-5.62L301.30-5.62Q301.68-6.48 301.89-7.45L301.89-7.45L301.89-7.45Q302.11-8.42 302.20-9.39L302.20-9.39L302.20-9.39Q302.29-10.37 302.29-11.25" fill="#4dc4ff" stroke="none" stroke-width="none" transform="translate(-152.875,12.784156494140625)" style="fill: rgb(222, 115, 255);"></path></g></g>
</g>
</g>
<style id="beat-534abe8f-d965-4a78-b2bd-c09344f20223" data-anikit="">@keyframes beat-534abe8f-d965-4a78-b2bd-c09344f20223
{
  0% {
    animation-timing-function: cubic-bezier(0.1028,0.2484,0.1372,0.849);
    transform: scale(1);
  }
  34% {
    animation-timing-function: cubic-bezier(0.7116,0.2095,0.8159,0.6876);
    transform: scale(1.2);
  }
  68% {
    animation-timing-function: cubic-bezier(0.1475,0.2888,0.294,0.883);
    transform: scale(1.0268);
  }
  84% {
    animation-timing-function: cubic-bezier(0.8176,0.2193,0.867,0.6889);
    transform: scale(1.0932);
  }
  100% {
    transform: scale(1);
  }
}</style></svg>